<svg height="387pt" viewBox="-23 0 387 387" width="387pt" xmlns="http://www.w3.org/2000/svg"><path d="m50 47.601562c.011719-20.761718 16.839844-37.589843 37.601562-37.601562h-40c-20.761718.011719-37.589843 16.839844-37.601562 37.601562v324.597657c0 1.824219 1.035156 3.484375 2.667969 4.292969 1.636719.804687 3.585937.617187 5.03125-.492188l32.300781-32.5zm0 0" fill="#d4e1f4"/><path d="m167.699219 265.398438-20 20.101562 89.902343 90.5c1.441407 1.128906 3.402344 1.332031 5.042969.523438 1.644531-.8125 2.675781-2.492188 2.65625-4.324219v-28.699219zm0 0" fill="#d4e1f4"/><path d="m292.398438 0h-244.796876c-26.277343.0273438-47.5742182 21.324219-47.601562 47.601562v324.597657c-.015625 5.660156 3.210938 10.828125 8.300781 13.300781 2.027344.980469 4.246094 1.492188 6.5 1.5 3.308594-.007812 6.515625-1.136719 9.097657-3.199219.324218-.238281.628906-.507812.902343-.800781l102.800781-103.5 102.796876 103.5c.277343.292969.578124.5625.902343.800781 4.4375 3.511719 10.496094 4.175781 15.589844 1.703125s8.324219-7.640625 8.308594-13.304687v-239.398438h34.800781c27.609375-.011719 49.988281-22.390625 50-50v-35.199219c-.0625-26.265624-21.335938-47.539062-47.601562-47.601562zm-57.097657 47.601562v311.898438l-100.601562-101.199219c-1.863281-1.917969-4.425781-3-7.097657-3-2.675781 0-5.238281 1.082031-7.101562 3l-100.5 101.199219v-311.898438c.03125-15.230468 12.371094-27.570312 27.601562-27.601562h196.5c-5.722656 8.066406-8.796874 17.710938-8.800781 27.601562zm84.699219 35.199219c-.046875 16.546875-13.453125 29.949219-30 30h-34.699219v-65.199219c.03125-15.230468 12.367188-27.570312 27.597657-27.601562h9.402343c15.230469.03125 27.570313 12.371094 27.597657 27.601562v35.199219zm0 0" fill="#0635c9"/></svg>